<svg version="1.1" xmlns="http://www.w3.org/2000/svg" viewBox="0 0 555 419.35852813720703" width="555" height="419.35852813720703" filter="invert(93%) hue-rotate(180deg)">
  <!-- svg-source:excalidraw -->
  
  <defs>
    <style class="style-fonts">
      @font-face {
        font-family: "Virgil";
        src: url("https://excalidraw.com/Virgil.woff2");
      }
      @font-face {
        font-family: "Cascadia";
        src: url("https://excalidraw.com/Cascadia.woff2");
      }
    </style>
    
  </defs>
  <rect x="0" y="0" width="555" height="419.35852813720703" fill="#ffffff"></rect><g stroke-linecap="round" transform="translate(10 10) rotate(0 267.5 30)"><path d="M15 0 M15 0 C142.41 -0.58, 270.42 -0.54, 520 0 M15 0 C201.33 -0.37, 388.81 -0.68, 520 0 M520 0 C529.45 -1.4, 536.3 5.22, 535 15 M520 0 C531.44 1, 533.55 6.2, 535 15 M535 15 C533.76 24.96, 535.42 39.22, 535 45 M535 15 C534.57 25.15, 534.24 34.68, 535 45 M535 45 C536.65 54.4, 531.43 60.71, 520 60 M535 45 C532.91 54.7, 528.76 59.38, 520 60 M520 60 C372.06 61.17, 223.86 60.22, 15 60 M520 60 C333.59 61.16, 147.95 60.92, 15 60 M15 60 C5.98 59.02, 0.44 53.87, 0 45 M15 60 C4.35 60.15, -2.05 55.69, 0 45 M0 45 C-1.18 35.44, 2.17 28.39, 0 15 M0 45 C0.06 37.7, -0.78 29.93, 0 15 M0 15 C0.29 6.07, 4.25 1.81, 15 0 M0 15 C2.17 5.87, 4.18 -1.24, 15 0" stroke="#1e1e1e" stroke-width="1" fill="none"></path></g><g transform="translate(214.7400665283203 27.5) rotate(0 62.75993347167969 12.5)"><text x="62.75993347167969" y="0" font-family="Virgil, Segoe UI Emoji" font-size="20px" fill="#1e1e1e" text-anchor="middle" style="white-space: pre;" direction="ltr" dominant-baseline="text-before-edge">&lt;NotePage/&gt;</text></g><g stroke-linecap="round" transform="translate(10.754791259765682 197.16989135742188) rotate(0 114 103.5)"><path d="M32 0 M32 0 C93.43 0.02, 158.01 0.97, 196 0 M32 0 C78.59 -1.37, 124.35 -0.22, 196 0 M196 0 C216.8 1.53, 227.6 12.29, 228 32 M196 0 C219.06 0.75, 228.15 12.07, 228 32 M228 32 C229.22 84.85, 230.31 137.7, 228 175 M228 32 C227.3 72.99, 227.77 114.79, 228 175 M228 175 C227.31 198.04, 219.31 208.58, 196 207 M228 175 C227.37 194.93, 217.96 207.14, 196 207 M196 207 C129.73 206.33, 66.46 207.7, 32 207 M196 207 C151.41 206.35, 106.91 206.83, 32 207 M32 207 C8.71 208.67, 0.73 197.4, 0 175 M32 207 C10.34 207.48, -0.83 195.34, 0 175 M0 175 C0.04 128.44, 0.08 81.9, 0 32 M0 175 C0.95 137.34, 1.36 98.86, 0 32 M0 32 C0.78 12.31, 9.94 -0.44, 32 0 M0 32 C2.16 11.17, 12.95 0.72, 32 0" stroke="#1e1e1e" stroke-width="1" fill="none"></path></g><g transform="translate(78.74484252929693 288.1698913574219) rotate(0 46.00994873046875 12.5)"><text x="46.00994873046875" y="0" font-family="Virgil, Segoe UI Emoji" font-size="20px" fill="#1e1e1e" text-anchor="middle" style="white-space: pre;" direction="ltr" dominant-baseline="text-before-edge">&lt;Editor/&gt;</text></g><g stroke-linecap="round" transform="translate(308.6602325439453 198.35852813720703) rotate(0 114 105.5)"><path d="M32 0 M32 0 C91.71 -2.78, 152.86 -2.75, 196 0 M32 0 C85.88 -1.35, 141.15 -0.62, 196 0 M196 0 C218.88 0.57, 226.34 10.16, 228 32 M196 0 C215.65 -2.09, 226.09 12.19, 228 32 M228 32 C227.56 85.47, 230.35 141.76, 228 179 M228 32 C227.37 67.47, 227.29 104.23, 228 179 M228 179 C228.57 198.99, 218.11 210.11, 196 211 M228 179 C229.32 201.79, 215.29 209.22, 196 211 M196 211 C135.37 211.59, 77.06 208.53, 32 211 M196 211 C144.73 213.24, 93.44 213, 32 211 M32 211 C9.08 211.53, -1.26 201.62, 0 179 M32 211 C12.52 211.47, 0.32 201.98, 0 179 M0 179 C-1.59 120.34, -2.19 63.69, 0 32 M0 179 C-0.26 145.08, 1.04 111.42, 0 32 M0 32 C1.47 12.05, 11.66 0.29, 32 0 M0 32 C-0.95 9.29, 8.78 0.33, 32 0" stroke="#1e1e1e" stroke-width="1" fill="none"></path></g><g transform="translate(371.40028381347656 291.35852813720703) rotate(0 51.25994873046875 12.5)"><text x="51.25994873046875" y="0" font-family="Virgil, Segoe UI Emoji" font-size="20px" fill="#1e1e1e" text-anchor="middle" style="white-space: pre;" direction="ltr" dominant-baseline="text-before-edge">&lt;Preview/&gt;</text></g><g mask="url(#mask-8ZAQWH-Rwzh-y0gkm_JLG)" stroke-linecap="round"><g transform="translate(67.33037567138678 71.88685607910156) rotate(0 -2.0667756084502287 60.76664590702737)"><path d="M-0.8 -1.19 C-1.39 7.99, -3.99 34.8, -4.21 55.22 C-4.43 75.63, -2.53 110.29, -2.13 121.31 M0.98 0.8 C0.33 10.18, -4.33 36.5, -4.99 56.82 C-5.64 77.14, -3.54 111.78, -2.93 122.73" stroke="#1e1e1e" stroke-width="1" fill="none"></path></g><g transform="translate(67.33037567138678 71.88685607910156) rotate(0 -2.0667756084502287 60.76664590702737)"><path d="M-16.71 95.67 C-11.65 101.72, -8.7 108.97, -2.62 124.71 M-14.17 95.43 C-11.03 104.93, -5.54 114.44, -2.09 123.57" stroke="#1e1e1e" stroke-width="1" fill="none"></path></g><g transform="translate(67.33037567138678 71.88685607910156) rotate(0 -2.0667756084502287 60.76664590702737)"><path d="M3.78 94.55 C3.91 100.73, 1.93 108.25, -2.62 124.71 M6.32 94.31 C2.08 104.38, 0.21 114.29, -2.09 123.57" stroke="#1e1e1e" stroke-width="1" fill="none"></path></g></g><mask id="mask-8ZAQWH-Rwzh-y0gkm_JLG"><rect x="0" y="0" fill="#fff" width="171.85863494873053" height="293.0029422906203"></rect><rect x="26.132148742675838" y="114.48114013671875" fill="#000" width="73.33993530273438" height="25" opacity="1"></rect></mask><g transform="translate(26.132148742675838 114.48114013671875) rotate(0 39.13145132026071 18.17236184941018)"><text x="36.66996765136719" y="0" font-family="Virgil, Segoe UI Emoji" font-size="20px" fill="#1e1e1e" text-anchor="middle" style="white-space: pre;" direction="ltr" dominant-baseline="text-before-edge">content</text></g><g mask="url(#mask-H4yBs91KaPvzQSmZQoCht)" stroke-linecap="round"><g transform="translate(184.53349270060562 72.03826967209324) rotate(180.63630613874543 -0.21115727374856874 61.31516374842383)"><path d="M-0.11 0.75 C-0.92 10.02, -6.09 34.68, -5.25 54.8 C-4.42 74.92, 3.23 110.26, 4.92 121.47 M-1.63 0.09 C-2.02 9.62, -3.97 35.78, -2.92 56.19 C-1.88 76.59, 3.23 111.36, 4.65 122.54" stroke="#1e1e1e" stroke-width="1" fill="none"></path></g><g transform="translate(184.53349270060562 72.03826967209324) rotate(180.63630613874543 -0.21115727374856874 61.31516374842383)"><path d="M-8.02 94.75 C-6.22 104.64, -2.83 111.67, 4.83 121.16 M-8.52 96.44 C-5.29 103.31, -1.62 111.76, 4.5 122.76" stroke="#1e1e1e" stroke-width="1" fill="none"></path></g><g transform="translate(184.53349270060562 72.03826967209324) rotate(180.63630613874543 -0.21115727374856874 61.31516374842383)"><path d="M12.32 92.02 C8.68 102.62, 6.64 110.38, 4.83 121.16 M11.82 93.72 C9.05 101.44, 6.74 110.69, 4.5 122.76" stroke="#1e1e1e" stroke-width="1" fill="none"></path></g></g><mask id="mask-H4yBs91KaPvzQSmZQoCht"><rect x="0" y="0" fill="#fff" width="293.0407884935477" height="293.99841595418735"></rect><rect x="133.93013981142735" y="127.12187267157537" fill="#000" width="109.27989196777344" height="25" opacity="1"></rect></mask><g transform="translate(133.9301398114274 127.12187267157537) rotate(0 50.39219561542964 6.231560748941689)"><text x="54.63994598388672" y="0" font-family="Virgil, Segoe UI Emoji" font-size="20px" fill="#1e1e1e" text-anchor="middle" style="white-space: pre;" direction="ltr" dominant-baseline="text-before-edge">setContent</text></g><g mask="url(#mask-eZXmqEbDzoo607NT4ie-I)" stroke-linecap="round"><g transform="translate(407.4248733520508 75.81828451289454) rotate(0 -2.042344921390054 60.74009829632348)"><path d="M-0.44 0.29 C-1.26 9.5, -4.12 35.01, -4.48 55.31 C-4.85 75.61, -2.89 110.93, -2.64 122.09 M1.53 -0.61 C0.52 8.22, -4.53 33.15, -5.41 53.3 C-6.28 73.44, -4.09 109.09, -3.72 120.26" stroke="#1e1e1e" stroke-width="1" fill="none"></path></g><g transform="translate(407.4248733520508 75.81828451289454) rotate(0 -2.042344921390054 60.74009829632348)"><path d="M-14.74 92.62 C-11 100.91, -5.87 109.66, -1.85 122.22 M-14.69 91.59 C-10.04 103.89, -6.27 114.1, -2.82 120.98" stroke="#1e1e1e" stroke-width="1" fill="none"></path></g><g transform="translate(407.4248733520508 75.81828451289454) rotate(0 -2.042344921390054 60.74009829632348)"><path d="M5.76 91.71 C2.62 100.23, 0.86 109.28, -1.85 122.22 M5.81 90.68 C2.54 103.36, -1.61 113.91, -2.82 120.98" stroke="#1e1e1e" stroke-width="1" fill="none"></path></g></g><mask id="mask-eZXmqEbDzoo607NT4ie-I"><rect x="0" y="0" fill="#fff" width="511.95313262939453" height="296.93437072441327"></rect><rect x="366.22664642333984" y="118.41256857051172" fill="#000" width="73.33993530273438" height="25" opacity="1"></rect></mask><g transform="translate(366.22664642333984 118.41256857051172) rotate(0 39.15588200732088 18.145814238706294)"><text x="36.66996765136719" y="0" font-family="Virgil, Segoe UI Emoji" font-size="20px" fill="#1e1e1e" text-anchor="middle" style="white-space: pre;" direction="ltr" dominant-baseline="text-before-edge">content</text></g></svg>